<svg width="25" height="25" viewBox="0 0 25 25" fill="none" xmlns="http://www.w3.org/2000/svg">
<g clip-path="url(#clip0_6_847)">
<path d="M11.9323 10.401C10.4542 10.8354 8.69271 11.0594 6.65417 11.074C7.07604 9.35104 8.23542 7.91771 9.78229 7.13229C10.5917 8.19063 11.3073 9.28125 11.9323 10.401ZM12.9375 12.4115C12.8083 12.1198 12.6729 11.8292 12.5302 11.5417C10.8406 12.0729 8.82083 12.3427 6.48437 12.3458L6.47604 12.5C6.47604 13.9625 7.00104 15.3042 7.87187 16.349C9.19063 14.3687 10.8833 13.0531 12.9375 12.4115ZM8.80208 17.2458C10.4365 18.5219 12.626 18.901 14.6604 18.1167C14.3979 16.5667 13.9833 15.0542 13.4208 13.5833C11.526 14.1479 9.99896 15.3687 8.80208 17.2458ZM16.1719 7.73542C15.1542 6.95 13.8833 6.47604 12.5 6.47604C11.9896 6.47604 11.4958 6.54688 11.0229 6.66771C11.8187 7.73854 12.524 8.84062 13.1427 9.97187C14.4302 9.42604 15.4385 8.68021 16.1719 7.73542ZM25 12.5C25 19.4031 19.4031 25 12.5 25C5.59687 25 0 19.4031 0 12.5C0 5.59687 5.59687 0 12.5 0C19.4031 0 25 5.59687 25 12.5ZM19.7917 12.5C19.7917 8.47292 16.526 5.20833 12.5 5.20833C8.47396 5.20833 5.20833 8.47292 5.20833 12.5C5.20833 16.5271 8.47396 19.7917 12.5 19.7917C16.526 19.7917 19.7917 16.5271 19.7917 12.5ZM13.725 11.0948C13.8885 11.4323 14.0427 11.7729 14.1906 12.1156C15.5031 11.8896 16.9417 11.9031 18.5063 12.1594C18.4302 10.8135 17.9167 9.58229 17.0958 8.61458C16.2552 9.66146 15.1271 10.4875 13.725 11.0948ZM14.6771 13.3156C15.1865 14.6792 15.5781 16.0771 15.8427 17.5062C17.2094 16.5896 18.1771 15.1271 18.4437 13.4344C17.0719 13.1969 15.8167 13.1552 14.6771 13.3156Z" fill="#282828"/>
</g>
<defs>
<clipPath id="clip0_6_847">
<rect width="25" height="25" fill="white"/>
</clipPath>
</defs>
</svg>
