<svg width="369" height="12" viewBox="0 0 369 12" fill="none" xmlns="http://www.w3.org/2000/svg">
<g clip-path="url(#clip0_6_522)">
<path d="M368.913 8.46488C369.103 8.14519 369 7.4224 368.46 7.56603L368.079 8.79383L368.913 8.46951V8.46488Z" fill="#E05346"/>
<path d="M365.317 6.18997C364.69 6.78302 363.96 7.83013 364.373 8.956C365 7.77916 365.151 8.27028 365.817 6.86642C366.349 6.72279 366.754 7.26024 366.659 7.70966C366.849 7.39461 367.492 7.97839 367.778 7.20928C367.079 6.25947 366.198 6.2224 365.278 7.00542C365.079 6.73669 365.278 6.41237 365.317 6.18997Z" fill="#E05346"/>
<path d="M313.007 4.27646L313.34 4.42009C313.245 4.34132 313.134 4.29499 313.007 4.27646Z" fill="#E05346"/>
<path d="M280.593 3.60464C280.839 3.57684 280.942 3.45174 280.958 3.34055C280.728 3.41931 280.538 3.49807 280.593 3.60464Z" fill="#E05346"/>
<path d="M275.062 2.25175C275.181 2.28881 275.284 2.30734 275.387 2.33514C275.26 2.22395 275.141 2.15908 275.062 2.25175Z" fill="#E05346"/>
<path d="M313.007 4.27645L312.142 3.89189C312.078 4.29035 312.586 4.18842 313.007 4.27645Z" fill="#E05346"/>
<path d="M358.103 9.15059C358.285 9.09036 358.436 8.97453 358.571 8.82626C358.42 8.87723 358.278 8.92356 358.127 8.95599C358.119 9.02086 358.111 9.08109 358.095 9.15059H358.103Z" fill="#E05346"/>
<path d="M327.293 3.28495H327.555C327.634 3.14595 327.705 2.97452 327.777 2.78456L327.293 3.28495Z" fill="#E05346"/>
<path d="M338.261 3.09499C338.015 3.04865 337.928 4.09113 337.833 4.54518C337.976 4.11429 338.158 3.91043 338.372 3.83167C338.372 3.63244 338.341 3.39614 338.261 3.09499Z" fill="#E05346"/>
<path d="M355.643 4.92973L355.952 4.7861C355.873 4.83243 355.738 4.87413 355.643 4.92973Z" fill="#E05346"/>
<path d="M319.443 3.05791C319.427 2.90502 319.388 2.76602 319.34 2.68726C319.34 2.81699 319.38 2.94208 319.443 3.05791Z" fill="#E05346"/>
<path d="M12.7621 10.888C12.77 10.8139 12.7621 10.7676 12.7621 10.7027C12.6987 10.8093 12.675 10.8834 12.7621 10.888Z" fill="#E05346"/>
<path d="M0.0476074 5.72665L0.222214 5.67105C0.238088 5.47182 0.261898 5.28186 0.261898 5.08727L0.0476074 5.72665Z" fill="#E05346"/>
<path d="M264.934 0.917383C264.934 0.917383 264.958 0.931282 264.982 0.935916C265.252 0.815452 265.101 0.838618 264.934 0.917383Z" fill="#E05346"/>
<path d="M171.964 1.68649C173.02 2.61777 170.25 2.88186 171.837 3.91506C171.686 3.50734 173.282 2.28881 171.964 1.68649Z" fill="#E05346"/>
<path d="M357.817 9.01158C357.666 9.02548 357.516 9.03011 357.365 9.02085C357.571 9.05328 357.706 9.04865 357.817 9.01158Z" fill="#E05346"/>
<path d="M171.837 3.91507V3.92434L172.003 4.02163C171.932 3.97993 171.9 3.95214 171.837 3.91507Z" fill="#E05346"/>
<path d="M241.601 1.54286C241.648 1.72819 241.743 1.86719 241.839 1.99692C241.831 1.89035 241.775 1.76062 241.601 1.54286Z" fill="#E05346"/>
<path d="M258.982 3.02549L258.553 2.88649C258.72 2.97915 258.863 3.01622 258.982 3.02549Z" fill="#E05346"/>
<path d="M232.576 3.01622C232.346 2.93745 232.267 2.79382 231.941 2.93282C231.973 2.98842 231.997 3.02549 232.037 3.06255C232.156 2.91892 232.307 2.85406 232.568 3.02085L232.576 3.01622Z" fill="#E05346"/>
<path d="M223.179 3.02086C223.227 3.09962 223.298 3.15985 223.354 3.22935C223.449 3.21082 223.552 3.19229 223.656 3.17375L223.187 3.02086H223.179Z" fill="#E05346"/>
<path d="M41.3104 10.3876C41.1041 10.0958 40.9771 9.77143 40.8739 9.45174C41.0168 10.193 39.6358 10.4571 41.3104 10.3876Z" fill="#E05346"/>
<path d="M358.095 8.56216C358.04 8.82626 357.96 8.95599 357.817 9.01159C357.928 8.99769 358.032 8.97915 358.127 8.95599C358.151 8.80309 358.159 8.65483 358.095 8.56216Z" fill="#E05346"/>
<path d="M232.195 11.2355L230.703 11.0826C231.124 11.1846 231.664 11.2355 232.195 11.2355Z" fill="#E05346"/>
<path d="M108.709 10.2394L108.367 10.3645C108.502 10.3876 108.621 10.3598 108.709 10.2394Z" fill="#E05346"/>
<path d="M226.267 11.2355C225.997 10.8695 225.719 10.6564 225.426 10.5174C225.362 10.6008 225.291 10.6656 225.251 10.7861L226.267 11.2355Z" fill="#E05346"/>
<path d="M31.0408 11.912C32.4615 11.9398 31.7075 10.573 32.0091 9.78533C33.7075 9.39614 32.7948 10.7954 33.3742 11.495C34.4377 11.1336 35.2473 9.87336 36.0409 9.92896C36.0965 10.156 36.2552 10.2348 36.0727 10.5174C37.1917 9.42858 39.3981 10.4618 40.7077 9.09499C40.8029 9.21545 40.8505 9.33128 40.8744 9.43321C40.6601 8.7475 40.6283 8.04788 40.6759 7.55213C41.3109 7.52896 41.8585 6.68572 42.0966 7.57993C41.7077 7.55213 41.676 7.91352 41.4934 8.19614L42.1601 7.80695C42.7633 9.09499 41.2474 8.25174 41.2474 9.20618C42.549 8.7892 44.0649 7.72356 45.0649 8.08495C45.2713 9.34518 42.7315 8.50657 44.0649 9.6278L42.5173 9.14595C43.6998 11.1336 41.5807 9.00696 42.6601 11.1336C44.6919 11.4996 44.93 10.4942 46.9618 10.8602C47.4221 10.1606 46.811 9.82703 47.2713 9.12742C50.1523 7.87182 49.5412 12.2919 51.6603 10.6147C52.2079 9.77607 52.4222 8.18224 53.9302 9.02549L53.4143 10.4479C55.3826 10.5869 54.5413 8.40001 56.5969 9.35908C56.2318 9.9197 55.0493 9.83167 55.3509 9.99846C56.6842 11.1243 56.2953 9.19228 57.3192 9.19228L57.5334 10.4525C59.6287 10.2533 61.9383 9.34518 64.2558 9.11352C64.1288 9.48881 63.732 9.88263 64.2717 10.2672C67.2003 9.63707 70.5179 10.4201 73.3433 11.1707L74.4227 10.0819C74.6767 10.0958 74.891 10.573 74.6132 10.7861C75.7164 11.1985 74.6687 10.0958 75.2005 9.6695C75.8275 9.59537 76.0259 10.295 75.6291 10.6193C77.5736 9.6973 81.1609 8.63167 83.2086 9.79923L82.8118 10.1236C84.407 10.5637 84.6055 7.89499 86.0896 8.90966L85.8039 9.10425C89.2643 9.57684 93.0818 8.5807 95.7168 10.2209C96.2168 8.65483 99.1375 10.9205 99.3597 8.7336C101.336 9.81777 100.765 10.207 103.55 10.9344C104.296 11.0363 104.654 9.56757 105.574 9.34055L105.598 10.4849L106.844 9.28495L107.511 10.6517L108.368 10.3599C108.027 10.295 107.638 9.84557 107.693 9.51661C109.035 8.99769 110.971 10.3135 111.003 10.8973L114.185 9.92896C114.114 10.3877 113.582 10.5452 113.162 10.8371C114.86 9.6695 113.471 12.0417 115.027 10.9714C114.82 10.712 115.138 10.2904 115.178 10.0587C115.955 10.749 117.717 10.7537 119.027 10.4664L118.773 11.2541C121.13 11.4533 123.749 10.8741 126.4 10.8927C125.448 10.5266 125.67 9.15985 126.448 9.03012L126.757 10.2394C127.257 9.49344 125.948 9.78533 126.971 8.86796C127.964 9.00695 127.638 10.2394 127.067 10.6332L128.273 10.2162C128.344 10.5776 128.059 10.7676 127.987 11.2263C128.479 10.4757 130.067 12.4402 130.773 11.1336L130.845 11.495C133.495 11.5043 134.694 11.0873 136.853 11.027C136.892 9.98456 137.742 10.2162 138.384 9.37298C139.972 9.70657 141.726 10.5266 143.638 10.4386C144.98 9.9197 144.027 9.55367 144.631 8.93746C144.726 9.88726 146.639 9.79923 145.646 10.4803C147.94 10.3274 148.575 10.2904 151.472 9.52124C151.155 9.13205 150.805 8.96526 150.988 8.64093C151.512 8.4834 152.186 9.03939 152.107 9.49344L151.972 9.59074C155.226 8.16835 159.48 12.3568 162.075 10.3784L161.933 10.4757L164.623 9.44711C165.861 9.60927 163.885 10.1606 164.798 10.749C167.695 9.16448 169.377 10.9761 171.766 9.92433C173.615 12.7228 178.322 9.7251 180.814 11.5135L180.671 10.8556C181.314 10.2116 181.449 11.2309 181.925 11.3838C181.862 10.8695 181.227 10.7907 181.623 10.434C187.084 9.63707 192.893 11.3977 198.489 11.9907C200.537 12.1668 199.648 8.5807 202.235 10.156L201.505 11.3792C205.64 9.91043 209.949 11.4301 213.997 10.1838C213.759 10.4664 213.751 10.8324 213.354 10.8278C214.211 11.7174 216.513 10.8695 216.529 10.1467C217.156 10.2301 216.672 10.8046 217.061 11.1707C217.918 11.6942 219.212 10.0355 219.664 10.9205C219.743 11.0641 219.426 11.2077 219.267 11.2772C219.823 10.8463 221.87 11.3884 221.331 10.3599C222.847 10.851 224.235 9.9058 225.442 10.5127C226.228 9.36371 228.037 11.0641 228.291 9.44248C228.18 11.1197 230.95 10.7954 231.91 10.0077C231.593 10.5127 232.744 10.5313 232.371 11.2355C233.466 11.2124 234.466 10.9019 234.275 10.0402C236.291 12.0463 238.331 8.4278 239.466 10.9946C242.72 10.0958 245.728 9.48418 248.657 9.09035C248.553 10.7629 245.418 9.25715 245.545 11.0131C248.323 10.3228 249.926 8.89112 252.681 9.29421C253.395 9.52124 252.276 10.0216 252.038 10.3043C254.815 9.6139 257.403 10.4571 259.871 9.54441C259.871 9.70194 259.601 9.86873 259.347 9.99846C259.831 9.94286 260.482 10.244 260.427 9.48417L259.951 9.68804C259.173 8.58533 261.879 7.38533 261.966 6.80155C261.141 8.97916 264.403 7.34827 263.093 10.1004C263.411 9.95676 263.816 9.59537 263.744 9.09035C264.22 9.23862 264.371 9.53514 263.887 10.1143C265.633 9.70194 265.014 8.89112 266.586 8.90966C266.586 9.28031 266.26 9.41931 266.101 9.85483C266.903 9.13669 267.705 8.41854 269.038 8.72896C268.959 8.95136 269.109 9.23862 268.713 9.23398C271.006 9.12279 272.617 7.3251 275.133 8.01545C274.395 9.6139 275.991 8.54363 276.125 9.92433L277.475 9.51197L276.935 8.84016C278.118 8.86333 279.165 7.85792 280.181 8.30734L279.3 8.87722L281.522 8.61313L280.268 8.08958C281.467 7.37607 280.141 6.33823 281.713 6.72278C281.395 6.86178 282.895 6.74132 283.514 7.55676C284.102 7.11661 284.705 6.65329 285.578 6.99614C285.808 7.44093 285.396 8.5251 285.546 8.82163C286.126 7.66333 288.316 8.50194 289.054 7.2695C288.808 7.55676 288.8 8.28417 288.88 8.43244L289.364 7.4919C289.911 7.79306 289.991 7.93668 289.904 8.51583C291.554 8.68726 289.38 6.75985 291.34 7.51506C291.189 7.58919 291.261 7.73282 290.943 7.87645C292.912 8.27028 294.745 7.27877 296.547 7.74209C297.078 9.13668 294.967 8.08495 295.578 9.25715C298.181 9.00696 300.975 7.58919 303.491 7.91815L303.023 7.76526C303.372 5.80078 304.904 8.73823 306.174 7.81159C305.864 7.95522 305.761 8.90039 305.848 8.68263C307.578 8.99769 309.38 8.20078 311.991 7.57993L311.666 8.08495C312.682 8.53437 314.349 8.34441 315.444 8.57607C315.769 8.07105 316.396 8.15445 316.015 7.41777C319.404 10.295 322.484 5.87491 325.484 8.27028C325.127 8.27491 324.626 8.71043 324.912 8.71506L327.476 8.25174C327.269 7.3946 327.142 7.73282 326.603 7.06564C326.928 6.55599 327.65 6.16217 328.285 6.16217C327.134 6.72742 328.293 7.53823 328.793 8.01545C328.706 7.75136 328.881 7.4641 328.841 7.19537C330.182 8.7197 329.063 5.47182 330.889 6.50039L330.793 6.94981C331.476 6.71815 332.111 6.1251 332.841 6.25483C333.15 7.24634 332.111 6.71815 332.063 7.5336C333.095 7.478 334.103 5.65715 335.047 6.64402C334.611 6.92201 333.976 6.92665 333.531 7.20001C334.555 8.36294 334.674 8.06641 335.428 8.25174L335.357 8.22394L337.111 8.75213L336.666 8.43707C337.96 5.85174 339.301 7.96448 341.047 6.27336C339.349 7.87645 340.77 7.2 340.635 8.32124C341.079 8.63167 341.762 8.98379 341.563 9.29885C342.389 8.39074 342.944 10.0124 344.103 8.68726C344.159 9.04865 344.984 8.72433 344.802 9.63244C345.873 9.34981 344.548 9.00232 344.635 8.54827C346.286 7.31584 348.524 10.0448 350.897 8.35367C352.945 7.65406 353.326 6.43553 355.23 5.82858C355.873 6.40773 354.707 7.14441 354.707 7.14441C355.746 7.67723 356.524 7.57993 357.5 7.16294C357.302 7.478 357.5 7.74672 357.802 8.14981C358.588 8.05715 358.326 6.83398 359.357 7.3668C359.183 7.76989 358.953 8.41391 358.572 8.81699C359.492 8.4834 360.405 7.80695 361.365 7.48263C361.619 8.11275 360.786 8.43707 360.453 8.84943C361.524 8.5668 363.238 8.27954 363.572 7.2834L362.881 6.92665C363.27 6.88031 363.08 7.78379 362.794 7.96448C361.873 8.7475 361.469 7.62163 361.413 7.2556L362.096 7.02394C361.397 4.90194 359.357 7.36217 357.992 7.2417L358.564 5.69885L357.159 6.97761C356.857 6.57452 356.659 5.71738 357.334 5.48572C356.349 4.72587 356.461 6.03244 355.619 5.18456C355.524 5.0502 355.572 4.97607 355.651 4.91583L354.691 5.37452C354.881 5.0502 354.532 4.28572 355.119 4.50811C353.397 3.61854 352.341 5.66641 351.691 4.49421L351.833 4.40155C349.444 4.92047 351.603 5.53205 349.81 6.86178L348.603 4.06796L348.365 5.19846C348.119 5.15676 347.627 5.07336 347.722 4.61931C346.802 5.39305 347.881 5.11043 347.349 5.84248C346.159 4.8139 344.079 6.32433 343.809 4.52201C343.381 5.38379 344.944 5.18456 343.675 5.78224C343.309 3.84093 342.206 6.11583 341.127 5.22626C341.46 4.22549 342.484 4.75367 341.405 3.8641C340.754 5.55522 339.293 3.49344 338.381 3.81777C338.341 5.16603 336.389 4.37838 334.857 4.8278C334.952 4.37375 331.968 4.08649 330.539 3.6L330.579 3.37298C330.301 4.73514 328.833 4.47568 327.754 4.75831C327.793 3.94286 327.992 3.62317 328.571 3.25715H327.563C327.325 3.70194 327.008 3.92896 326.357 4.08649L326.611 3.06719C325.269 3.12278 323.904 4.26719 322.182 3.5861C322.087 4.53591 323.555 6.22703 321.73 6.86178C321.658 6.3475 321.595 5.47182 322.071 5.25869C321.912 5.32356 321.515 5.68495 321.198 5.46719L321.928 4.60541C321.142 4.22549 321.515 5.32819 320.888 5.24479C320.904 4.51275 320.42 4.72124 320.515 4.14209C320.674 4.07259 321.063 4.44325 321.301 4.15599C320.595 4.02626 319.738 3.59074 319.452 3.03475C319.515 3.45174 319.452 4.02163 318.936 4.11429C317.595 4.16989 318.476 3.23398 317.69 2.85869C317.364 3.36834 316.507 2.84016 316.483 3.9336C316.095 3.92896 316.015 3.41931 315.864 3.12278C315.166 3.60464 312.618 3.26178 313.404 4.42472L313.579 4.50348C313.579 4.50348 313.507 4.52665 313.468 4.54981C311.19 5.63861 308.737 3.92896 306.483 4.39692V4.03089C305.142 4.44788 303.483 4.27645 302.523 5.0641C302.126 5.0641 301.578 4.39692 301.753 3.96139C300.721 4.23475 300.61 4.64711 299.118 4.04479C300.158 3.40541 298.761 3.47954 300.182 3.57684C298.84 3.26178 298.539 2.67336 297.102 3.67414C297.594 2.73823 296.094 2.49267 295.459 2.77529L296.396 3.44711C295.681 3.5861 295.054 3.50271 294.419 3.41931L294.761 2.18688C292.023 0.685719 289.816 4.73977 287.729 2.22858C287.007 3.09035 289.221 2.83553 288.57 3.84556C287.308 3.67877 285.999 1.90888 285.602 1.90425C283.872 1.22317 283.991 3.70657 282.181 3.23861C282.411 3.67877 282.634 4.85097 281.276 5.26796C280.014 5.1058 279.729 3.42394 280.522 3.07182C280.824 3.03475 280.975 3.17375 280.959 3.32201C281.364 3.16448 281.903 2.97452 281.403 2.4973L281.237 2.93746C280.61 2.48804 278.872 2.53437 279.284 1.81622C278.332 2.23321 278.879 2.539 279.586 2.76603C277.967 2.12665 277.054 2.74749 275.395 2.32124C275.657 2.56217 275.903 3.08109 275.641 3.07645C273.197 2.52973 274.562 3.91043 272.911 4.10502C271.975 3.43321 273.244 2.50194 271.586 3.06719C270.57 2.61313 271.371 1.89962 271.776 1.54286C270.26 2.39074 268.943 0.986877 268.07 0.829348L268.871 0.472591C268.395 0.685719 267.998 0.676452 267.601 0.676452L268.062 1.55676C267.594 1.40387 267.197 1.39923 267.205 1.03321C266.721 1.60773 267.578 2.4973 266.617 3.28495C265.99 2.84016 264.713 3.7668 264.498 2.59923C266.467 2.99769 264.284 1.42703 265.951 1.23707C265.633 1.37607 265.236 1.37143 264.768 1.21854C264.697 1.08881 264.832 0.977611 264.966 0.908113C263.086 -0.134359 264.101 2.22858 262.149 2.20078C262.395 1.54286 261.697 0.954444 261.379 1.09344C262.165 1.10734 261.752 2.19151 261.03 2.69653C259.776 2.18224 259.673 3.07645 259.014 3.01622L259.76 3.25715C259.506 3.91506 258.879 3.82703 258.006 4.03553C257.935 3.52124 258.8 3.6834 258.49 3.45638C257.522 4.61468 256.3 2.26101 254.95 3.03939C254.323 2.5946 254.887 1.80232 254.339 1.50116C252.823 2.35367 252.696 0.597688 251.109 1.30657C251.569 2.19151 251.649 1.97375 250.53 2.83553L253.149 2.21468L251.466 3.50271C252.252 3.51661 253.133 2.94672 253.609 3.09499C252.808 3.81776 252.895 3.59537 253.268 4.33205C252.188 3.00695 251.125 5.1058 249.879 4.20695L249.919 2.02008C248.038 1.04248 246.585 3.14132 244.141 2.58997L244.926 2.96989C244.601 3.84093 243.418 3.09035 242.633 3.44248C242.704 2.71043 242.212 2.44634 241.879 1.98765C241.918 2.52973 240.093 1.93668 239.871 3.40078L238.783 2.43707C236.815 2.04325 236.537 4.52201 234.64 4.27182C235.212 3.47491 234.347 2.95599 235.617 2.39074C234.982 2.38147 234.418 2.25174 234.41 2.75676C234.037 2.29807 232.656 3.74363 232.077 3.04865C231.807 3.36834 231.72 4.13746 231.013 4.07723C230.934 3.92896 231.013 3.71584 231.013 3.71584C231.013 4.07723 229.902 4.20695 230.521 5.01777C228.577 2.7336 225.085 5.18456 223.386 3.22008C222.005 3.46564 220.346 3.70194 219.092 3.7529C219.172 3.53514 219.092 3.38688 219.331 3.46564C217.6 2.78456 218.267 5.56912 216.307 4.80464C215.307 3.62317 217.346 4.16526 216.727 3.71584C216.458 1.30657 214.354 4.04479 213.037 2.6363L213.354 2.4973C212.346 1.67722 210.886 3.41004 209.235 3.23861C209.235 3.23861 209.315 3.02549 209.243 2.87722C208.116 4.10502 205.973 4.51275 204.386 4.85097C204.878 3.91043 205.108 4.35058 204.806 3.39614C204.092 3.53051 205.013 4.93437 203.592 5.20309C203.132 4.68881 202.108 4.23475 201.965 3.21545L203.306 3.15985C202.616 1.83939 201.568 3.20618 200.862 2.97452L200.949 2.39537C198.894 2.5807 198.862 4.04016 196.655 3.9336L196.886 4.37375C195.679 5.81468 195.878 3.56294 194.671 4.63321L194.306 3.16912C193.513 3.52124 191.52 4.58224 190.092 4.86024C190.901 3.77607 192.576 3.22008 193.608 2.57607C192.822 2.5668 190.925 2.68263 190.512 3.40541C190.83 3.26641 191.235 2.90502 191.544 3.13205C190.576 4.28109 189.298 4.84634 187.727 4.82317C188.005 1.98765 183.623 4.10966 182.489 1.90425C179.703 2.95136 176.965 1.45483 173.726 1.62626C174.877 3.83166 172.782 1.69112 172.98 3.95676C172.226 4.10039 171.941 4.06333 171.869 3.91506L169.583 2.56217C169.044 1.90425 170.298 2.06178 170.234 1.55213C168.583 1.37607 169.544 0.593055 168.449 -0.00926208C168.671 0.801549 167.877 1.15367 166.933 0.843248L168.258 1.89035C165.948 3.09499 166.258 -0.0138953 163.933 1.18147L164.671 0.467958C163.472 0.88958 160.258 0.454058 159.091 2.27491C158.877 2.01545 158.599 1.3946 159.123 1.2278C156.266 0.954445 152.766 3.16448 150.543 2.04325L150.758 1.48726C150.226 1.64943 149.829 2.52973 149.162 1.96912C149.194 1.74209 149.377 1.41777 149.131 1.38533C148.845 1.57529 147.718 2.35831 147.012 2.03398L147.615 1.4085C144.829 0.681085 143.337 2.92819 141.003 3.30811C141.003 1.67722 138.821 1.14441 137.726 0.880313L137.765 0.648653C134.519 0.444792 132.257 2.00155 129.249 2.64093C127.384 0.871047 122.932 1.89962 119.932 0.908113C120.392 1.20464 119.86 2.17761 119.32 2.34441C118.614 2.01545 117.376 3.47491 117.487 1.97838L117.741 2.00618C117.209 0.537456 115.765 0.931278 114.638 0.88958L114.455 2.84479C111.503 4.31575e-06 106.717 3.8919 105.106 1.339C104.392 1.83012 103.511 1.82085 102.804 2.31197L102.844 1.26024C100.868 0.99151 99.8836 0.86178 97.447 1.11197L97.947 0.361394C96.574 0.291896 96.2089 3.38688 94.939 3.44711L94.5581 1.88109C92.1532 1.90425 89.7246 0.52819 87.3515 1.95058C87.3912 1.71892 87.4627 1.2695 87.8516 1.20464C86.7246 1.16294 83.4784 0.143634 83.8912 2.29344C83.8594 0.894213 81.4149 2.15444 80.1212 2.77529L80.3196 1.74209C79.2244 3.06255 79.1926 3.42394 77.6609 3.78997C77.2958 3.6556 77.3434 2.96526 77.8275 3.22935C76.6212 2.68726 76.891 4.20695 75.4227 3.6556L75.9704 2.99769C74.7322 2.91892 74.8275 3.27105 74.1449 4.04016C73.3671 4.45251 71.7877 3.7807 71.6052 2.84479C71.4385 3.41468 70.756 4.17452 70.0258 3.9058C69.9305 3.55367 70.1925 3.33591 70.3274 3.22935C68.248 2.5251 67.24 4.42935 65.8114 3.41468C65.7797 3.07182 65.6924 2.90039 65.5733 2.79846C67.2241 2.82626 68.5496 2.88186 68.4305 2.95599C68.4305 2.00155 67.0971 1.83475 68.1607 0.523556C67.0892 1.2417 65.2638 2.80309 63.9622 2.35367C63.8987 2.26101 63.8352 2.17298 63.7876 2.02471L63.9225 1.91815C63.6209 1.82549 63.351 1.91352 63.105 2.07105C62.6923 1.91352 62.4304 1.79769 62.0256 1.78379C61.8748 0.996143 60.4938 1.35753 59.8351 1.32047C59.8906 2.36294 59.0176 2.19614 59.8351 3.05792C59.7319 2.98379 59.9621 2.93282 60.3986 2.89112C60.5018 2.85869 60.6129 2.84479 60.6843 2.78456C60.6684 2.81236 60.6526 2.84479 60.6367 2.87722C61.0732 2.84943 61.6446 2.82163 62.2875 2.80773C61.7637 3.33591 61.2161 3.7807 60.478 3.20618C60.1367 3.878 59.7637 4.56371 59.5494 4.88804C58.6366 3.43321 56.8906 2.6502 56.6445 1.75136C54.6128 2.33514 51.8667 2.13591 50.5889 4.09576C50.0095 4.34595 49.9222 3.53514 49.7079 3.22471C50.0412 3.02549 50.4381 3.05792 50.6206 2.77529C49.4698 3.27568 47.2078 2.96989 46.93 4.33668C45.4776 3.72047 47.7475 3.07645 45.7475 3.30348L46.0173 2.88649C42.0887 0.699618 39.6283 6.37529 35.2711 3.57221C35.5727 3.74363 35.7235 3.8224 35.7869 4.05406C30.8186 2.81699 25.5566 5.21699 20.6517 3.25251C19.2548 2.85869 19.1041 3.72973 18.2548 4.39228L17.9532 3.27105L16.5008 4.56371C14.4373 5.50889 12.9293 1.81622 10.3261 3.60464L10.6594 4.35985C9.7229 4.21622 7.69111 4.80464 7.84984 3.93823C7.7546 4.07722 7.54031 4.72124 7.17522 4.32742L7.14348 3.74363L4.84184 4.74904C3.05609 4.32742 5.11962 2.42317 2.51639 2.31197C1.50844 2.54363 -0.277318 4.02163 0.0877695 4.41545C0.476667 4.44325 1.08779 4.78147 1.1116 5.36526L0.222693 5.67105C0.0639595 7.3946 -0.618595 9.16448 1.55606 10.3691L3.07196 9.31275L3.5561 10.1514L2.27829 10.2023C3.00053 10.99 3.46086 10.295 3.97674 9.81313C4.09579 10.2579 4.31008 10.5683 4.61168 10.7351L6.09584 9.08572C6.27838 9.76217 5.42915 10.4247 6.42918 10.8C7.1276 10.0355 5.76249 9.28495 6.91331 8.78456C7.63555 9.56757 7.4292 10.207 8.27842 9.53514C8.39747 9.97993 8.21493 10.2626 7.88159 10.4571C8.63557 9.92433 9.88163 10.2301 10.2785 9.31275C11.0324 10.2811 12.8341 9.06255 12.7626 10.6934C13.0007 10.3043 14.096 9.41004 14.7944 9.34518C13.5246 11.3004 17.3977 9.46101 17.0643 11.5552C18.0009 9.7946 20.4612 10.7722 22.1279 9.79923C22.0327 9.93823 21.8501 10.2209 21.7073 10.1328C22.6438 10.2811 22.9137 10.8093 23.5168 11.1429C23.6359 9.69267 25.0962 9.35908 25.882 8.46487C27.0328 9.8641 25.1835 10.1699 25.5486 11.5182C25.4931 10.3413 27.5407 10.3413 27.1518 9.36371C28.0328 10.2301 27.9058 9.78533 28.3582 10.99C28.509 9.17375 29.1757 10.6842 29.9059 9.56757C31.1757 10.4618 30.2313 11.268 31.6281 10.7166C32.2948 11.2726 31.0487 11.9166 31.0487 11.9166L31.0408 11.912ZM64.2558 8.77066V8.78919C63.9701 8.81236 63.7241 8.83553 63.5733 8.84943C63.7161 8.83553 63.9145 8.81236 64.2558 8.77066ZM67.0495 8.75213C66.7083 8.71043 66.2876 8.7058 65.8352 8.71043C65.74 8.34904 65.8431 7.97838 66.1209 7.99692C65.9701 8.23784 66.6289 8.44634 67.0416 8.74749L67.0495 8.75213ZM61.1446 1.5336C61.5891 1.38533 61.7319 1.58919 61.7954 1.80232C61.5891 1.82085 61.3431 1.85792 61.0256 1.92742C61.0097 1.96448 60.9859 2.01082 60.97 2.05715C61.0097 1.85792 61.0573 1.67259 61.1446 1.5336Z" fill="#E05346"/>
<path d="M60.3505 2.90503C60.287 2.92819 60.2553 2.96989 60.168 2.97916C60.2553 3.07182 60.3426 3.15059 60.4299 3.21545C60.4854 3.10426 60.541 2.99769 60.5886 2.89113C60.5092 2.89576 60.4219 2.9004 60.3505 2.90966V2.90503Z" fill="#E05346"/>
<path d="M313.403 4.44788L313.348 4.42471C313.396 4.46641 313.443 4.50811 313.474 4.57298C313.435 4.52201 313.435 4.48958 313.411 4.44788H313.403Z" fill="#E05346"/>
<path d="M105.597 10.749V10.4896L105.351 10.7166L105.597 10.749Z" fill="#E05346"/>
<path d="M328.777 8.02472C328.809 8.11738 328.864 8.21005 328.975 8.29345C328.967 8.22395 328.88 8.13128 328.777 8.02472Z" fill="#E05346"/>
<path d="M335.42 8.25638L336.356 8.62704C335.952 8.41391 335.65 8.31661 335.42 8.25638Z" fill="#E05346"/>
<path d="M340.523 8.7753C340.586 8.5946 340.602 8.45561 340.625 8.33051C340.625 8.33051 340.625 8.33051 340.618 8.32124L340.531 8.7753H340.523Z" fill="#E05346"/>
<path d="M259.339 9.99846C259.268 10.0031 259.204 10.017 259.141 10.0448C258.68 10.2487 258.99 10.1653 259.339 9.99846Z" fill="#E05346"/>
<path d="M283.498 7.5614C283.244 7.75136 282.99 7.93669 282.72 8.05252C283.149 8.13129 283.482 8.15445 283.498 7.5614Z" fill="#E05346"/>
<path d="M232.353 11.2494C232.353 11.2494 232.353 11.2402 232.353 11.2309C232.298 11.2309 232.243 11.2309 232.188 11.2309L232.353 11.2494Z" fill="#E05346"/>
<path d="M281.593 8.03861C282.022 8.24711 282.379 8.20077 282.72 8.05715C282.371 7.98765 281.95 7.88108 281.593 8.03861Z" fill="#E05346"/>
<path d="M362.651 9.24788L362.897 9.28958C362.897 9.22008 362.905 9.16449 362.928 9.12279L362.651 9.24788Z" fill="#E05346"/>
<path d="M362.928 9.12278L363.198 8.99768C363.071 8.99768 362.96 9.00695 362.928 9.12278Z" fill="#E05346"/>
<path d="M363.778 8.73824L363.206 9.00233C363.405 9.00233 363.651 9.03939 363.778 8.73824Z" fill="#E05346"/>
<path d="M355.894 8.76602L355.817 9.14594C355.856 9.06718 355.887 8.94672 355.894 8.76602Z" fill="#E05346"/>
<path d="M353.841 8.8726C354.333 8.96063 355.071 9.67877 355.754 9.44248L355.817 9.14132C355.5 9.70194 354.309 8.23321 353.841 8.8726Z" fill="#E05346"/>
<path d="M345.269 4.20232L346.992 4.50348C346.69 4.10039 346.293 3.55831 347.079 3.46564C344.912 2.26564 347.523 4.36449 345.269 4.20232Z" fill="#E05346"/>
<path d="M339.928 3.61853C340.857 3.43321 339.92 3.03475 339.968 2.80772C339.38 3.17375 339.238 3.26641 339.928 3.61853Z" fill="#E05346"/>
<path d="M301.356 3.61391L301.451 2.66873C300.737 2.80309 301.451 3.03475 301.356 3.61391Z" fill="#E05346"/>
<path d="M293.982 8.51583L294.681 9.10425L295.006 8.23784L293.982 8.51583Z" fill="#E05346"/>
<path d="M289.633 1.76063L289.943 1.62627L288.752 1.96912L289.633 1.76063Z" fill="#E05346"/>
<path d="M224.854 2.09884L225.068 3.26641C225.552 3.05792 225.648 1.74672 224.854 2.09884Z" fill="#E05346"/>
<path d="M196.885 3.28958C196.583 2.70579 195.79 2.3305 195.306 2.90502C195.933 2.98379 196.56 3.44247 196.885 3.28958Z" fill="#E05346"/>
<path d="M113.018 1.38533L113.582 0.99614L112.518 1.32046L113.018 1.38533Z" fill="#E05346"/>
</g>
<defs>
<clipPath id="clip0_6_522">
<rect width="369" height="12" fill="white"/>
</clipPath>
</defs>
</svg>
