<svg width="25" height="25" viewBox="0 0 25 25" fill="none" xmlns="http://www.w3.org/2000/svg">
<g clip-path="url(#clip0_6_843)">
<path d="M25 4.74688C24.0802 5.15522 23.0917 5.43022 22.0542 5.55417C23.1135 4.9198 23.9271 3.91459 24.3094 2.71667C23.3187 3.30418 22.2208 3.73126 21.0521 3.96147C20.1177 2.96459 18.7833 2.34167 17.3083 2.34167C13.9969 2.34167 11.5635 5.43126 12.3115 8.63855C8.05 8.42501 4.27083 6.38334 1.74062 3.28022C0.396875 5.58543 1.04375 8.60105 3.32708 10.1281C2.4875 10.101 1.69583 9.87084 1.00521 9.48647C0.948958 11.8625 2.65208 14.0854 5.11875 14.5802C4.39687 14.7761 3.60625 14.8219 2.80208 14.6677C3.45417 16.7052 5.34792 18.1875 7.59375 18.2292C5.4375 19.9198 2.72083 20.675 0 20.3542C2.26979 21.8094 4.96667 22.6583 7.8625 22.6583C17.3854 22.6583 22.7656 14.6156 22.4406 7.40209C23.4427 6.67813 24.3125 5.77501 25 4.74688Z" fill="#282828"/>
</g>
<defs>
<clipPath id="clip0_6_843">
<rect width="25" height="25" fill="white"/>
</clipPath>
</defs>
</svg>
